<svg width="148" height="168" viewBox="0 0 148 168" fill="none" xmlns="http://www.w3.org/2000/svg">
<mask id="path-1-inside-1" fill="white">
<path d="M141.524 116.974C145.876 124.696 143.167 134.631 134.815 137.6C122.568 141.953 109.49 143.725 96.4127 142.731C77.9734 141.329 60.3637 134.491 45.8106 123.081C31.2576 111.672 20.4147 96.2027 14.6532 78.6306C10.5671 66.1684 9.16693 53.0454 10.4717 40.1135C11.3615 31.2943 20.3634 26.2929 28.901 28.6761V28.6761C37.4386 31.0593 42.1982 39.9721 42.1023 48.8356C42.03 55.5206 43.0495 62.2088 45.1548 68.6298C48.9384 80.1692 56.0588 90.3276 65.6157 97.8203C75.1726 105.313 86.7367 109.803 98.8456 110.724C105.584 111.236 112.322 110.63 118.796 108.964C127.381 106.756 137.172 109.251 141.524 116.974V116.974Z"/>
</mask>
<path d="M141.524 116.974C145.876 124.696 143.167 134.631 134.815 137.6C122.568 141.953 109.49 143.725 96.4127 142.731C77.9734 141.329 60.3637 134.491 45.8106 123.081C31.2576 111.672 20.4147 96.2027 14.6532 78.6306C10.5671 66.1684 9.16693 53.0454 10.4717 40.1135C11.3615 31.2943 20.3634 26.2929 28.901 28.6761V28.6761C37.4386 31.0593 42.1982 39.9721 42.1023 48.8356C42.03 55.5206 43.0495 62.2088 45.1548 68.6298C48.9384 80.1692 56.0588 90.3276 65.6157 97.8203C75.1726 105.313 86.7367 109.803 98.8456 110.724C105.584 111.236 112.322 110.63 118.796 108.964C127.381 106.756 137.172 109.251 141.524 116.974V116.974Z" stroke="#EFCA53" stroke-width="64" mask="url(#path-1-inside-1)"/>
</svg>
